<?xml version="1.0" standalone="no"?>
<!DOCTYPE svg PUBLIC "-//W3C//DTD SVG 20010904//EN"
 "http://www.w3.org/TR/2001/REC-SVG-20010904/DTD/svg10.dtd">
<svg version="1.0" xmlns="http://www.w3.org/2000/svg"
 width="225.000000pt" height="225.000000pt" viewBox="0 0 225.000000 225.000000"
 preserveAspectRatio="xMidYMid meet">

<g transform="translate(0.000000,225.000000) scale(0.100000,-0.100000)"
fill="#000000" stroke="none">
<path d="M1065 2243 c-337 -21 -636 -180 -834 -443 -414 -550 -234 -1352 374
-1667 171 -88 326 -125 520 -126 664 -1 1180 567 1114 1227 -60 597 -581 1045
-1174 1009z m89 -49 c23 -9 20 -27 -3 -19 -21 6 -42 -20 -34 -42 6 -15 33 -17
33 -3 0 6 -5 10 -11 10 -5 0 -7 5 -4 10 14 22 35 10 35 -21 0 -28 -2 -30 -32
-27 -26 2 -35 9 -43 32 -8 24 -6 31 14 47 26 22 24 21 45 13z m-140 -20 c3 -9
6 -27 6 -41 0 -19 4 -24 16 -19 10 4 14 1 12 -6 -3 -7 -14 -14 -25 -16 -16 -2
-21 4 -26 35 -4 21 -7 44 -7 51 0 17 17 15 24 -4z m66 -29 c0 -25 -4 -45 -10
-45 -5 0 -10 20 -10 45 0 25 5 45 10 45 6 0 10 -20 10 -45z m170 35 c0 -5 -9
-10 -20 -10 -11 0 -20 -4 -20 -10 0 -5 7 -10 15 -10 8 0 15 -5 15 -11 0 -6 -7
-9 -15 -5 -9 3 -15 0 -15 -9 0 -8 7 -15 15 -15 8 0 15 -5 15 -11 0 -6 -7 -8
-16 -5 -9 3 -21 6 -27 6 -8 0 -11 15 -9 45 4 42 6 45 33 45 16 0 29 -4 29 -10z
m-296 -35 c4 -21 13 -35 21 -35 23 0 18 -17 -7 -23 -28 -8 -27 -9 -34 46 -8
55 10 66 20 12z m354 3 c10 -33 10 -33 11 -5 1 15 6 27 11 27 12 0 13 -15 4
-59 -8 -40 -31 -40 -42 2 l-8 32 -7 -27 c-11 -43 -29 -34 -21 10 8 45 12 52
28 52 7 0 18 -15 24 -32z m-398 12 c0 -5 -7 -10 -15 -10 -8 0 -15 -4 -15 -10
0 -5 10 -10 23 -10 20 -1 21 -2 5 -14 -24 -18 -23 -29 2 -21 24 7 27 -10 4
-19 -32 -12 -42 -5 -48 36 -5 29 -3 44 6 50 18 11 38 10 38 -2z m484 0 c25 -9
37 -32 15 -27 -7 1 -16 -13 -21 -30 -13 -48 -31 -42 -23 7 5 27 3 40 -5 40 -6
0 -8 5 -5 10 8 12 8 12 39 0z m-553 -24 c-8 -9 -10 -28 -5 -52 8 -45 -11 -40
-21 6 -4 17 -13 30 -21 30 -8 0 -14 4 -14 9 0 10 22 18 54 20 15 1 16 -2 7
-13z m-65 -41 c7 -19 14 -39 14 -45 0 -15 -21 -12 -43 8 -19 17 -20 16 -13
-10 10 -41 -9 -34 -27 10 -18 45 -7 61 26 39 23 -15 24 -15 19 9 -6 35 7 29
24 -11z m714 25 c0 -6 -7 -27 -15 -46 -20 -49 -37 -34 -18 16 15 37 33 54 33
30z m50 -40 l5 -34 14 29 c19 42 25 16 6 -29 -18 -43 -37 -43 -46 0 -5 28 -5
28 -13 7 -7 -23 -26 -32 -26 -13 0 20 34 80 44 77 6 -2 13 -19 16 -37z m-847
-25 c19 -41 21 -55 7 -55 -9 0 -40 62 -40 81 0 21 17 7 33 -26z m955 -5 c3 -8
-2 -10 -17 -5 -12 4 -21 2 -21 -4 0 -6 5 -11 10 -11 6 0 10 -5 10 -11 0 -6 -8
-9 -17 -7 -10 2 -23 -3 -30 -12 -22 -29 -24 -2 -4 39 18 35 24 39 43 32 12 -4
24 -14 26 -21z m-1038 -26 c0 -14 5 -34 10 -45 8 -15 7 -19 -5 -19 -8 0 -15 4
-15 9 0 5 -12 16 -26 26 -38 24 -50 2 -23 -42 24 -39 7 -46 -22 -8 -12 14 -26
22 -34 18 -30 -11 -14 15 26 41 32 22 43 25 55 15 11 -9 14 -7 14 15 0 16 4
25 10 21 6 -3 10 -17 10 -31z m756 -4 c87 -22 218 -81 290 -131 84 -58 185
-162 245 -253 110 -166 155 -329 147 -529 -7 -173 -23 -163 -24 16 -2 133 -5
163 -29 242 -52 177 -165 348 -305 462 -130 106 -328 187 -490 200 -118 9
-130 24 -14 18 55 -3 136 -14 180 -25z m338 4 c34 -13 10 -84 -27 -84 -29 0
-47 18 -47 45 0 38 33 55 74 39z m-419 -39 c325 -57 581 -286 682 -609 22 -69
26 -102 27 -221 1 -136 -16 -255 -36 -255 -4 0 -8 6 -8 13 -1 6 -8 -4 -16 -23
-14 -32 -17 -33 -28 -17 -16 21 -30 22 -22 1 5 -12 2 -15 -11 -9 -44 18 -54
17 -75 -10 -23 -30 -32 -23 -42 27 -10 57 -49 123 -97 168 l-51 47 48 24 c64
31 94 77 94 141 0 27 -6 63 -14 81 -21 51 -90 104 -150 116 -71 15 -386 11
-386 -4 0 -12 29 -29 67 -40 38 -10 44 -64 41 -326 -3 -239 -3 -241 -27 -260
-13 -10 -34 -19 -47 -19 -29 0 -40 -16 -24 -35 9 -11 37 -15 109 -16 53 0 123
-4 156 -8 73 -9 95 -5 95 20 0 19 -14 27 -75 45 -43 13 -55 46 -55 156 l0 96
29 7 c42 9 84 -16 104 -62 9 -21 26 -78 38 -127 12 -49 30 -98 40 -110 11 -11
19 -23 19 -27 0 -4 11 -10 24 -13 30 -7 28 -39 -5 -71 -12 -11 -18 -13 -14 -5
6 12 5 13 -6 3 -7 -7 -34 -13 -59 -13 -46 0 -47 -1 -71 -50 -13 -27 -26 -49
-29 -50 -3 0 -16 21 -30 48 l-25 47 -65 3 c-52 2 -63 1 -52 -9 15 -16 17 -149
1 -149 -5 0 -7 -4 -4 -10 3 -5 31 -10 61 -10 52 0 54 -1 44 -20 -8 -14 -21
-20 -45 -20 -25 0 -33 -4 -29 -13 3 -8 -12 -25 -36 -42 -22 -16 -39 -34 -36
-41 5 -14 -14 -24 -45 -24 -11 0 -17 -5 -14 -10 3 -6 -3 -10 -14 -10 -28 0
-27 -20 2 -21 16 -1 13 -4 -13 -11 -50 -15 -221 -3 -315 21 -380 100 -645 443
-645 837 0 85 26 229 46 258 14 20 14 20 14 -2 0 -12 -4 -22 -10 -22 -5 0 -10
-7 -10 -15 0 -8 3 -15 8 -15 8 0 36 40 37 53 0 4 17 23 37 41 l37 34 15 -23
c9 -14 29 -25 54 -29 23 -3 42 -13 46 -22 3 -8 6 -132 6 -274 0 -256 0 -259
-22 -274 -12 -9 -35 -16 -50 -16 -29 0 -39 -22 -15 -37 19 -12 317 -10 317 2
0 18 -23 35 -45 35 -12 0 -30 9 -40 20 -17 19 -18 37 -11 267 4 159 11 256 19
273 7 14 26 30 45 36 45 14 58 29 42 49 -10 12 -37 15 -134 16 -110 0 -249 15
-172 18 23 1 26 4 17 15 -9 11 -6 12 16 9 22 -4 25 -2 13 6 -8 6 -10 11 -4 11
7 0 14 9 17 20 3 13 14 20 30 20 27 0 61 26 52 40 -3 4 15 18 40 30 24 12 47
30 50 41 5 14 13 18 28 15 12 -3 16 -3 10 0 -28 12 -11 25 25 19 l37 -6 -33
17 c-25 13 -30 19 -21 30 6 8 18 14 26 14 20 0 113 69 113 83 0 11 64 61 82
63 4 1 11 2 16 3 4 1 -4 9 -18 17 -14 8 -17 13 -7 10 24 -8 68 4 61 15 -3 5
-20 9 -37 10 -51 2 89 26 159 28 34 0 101 -6 149 -14z m505 -42 c0 -7 -7 -16
-15 -19 -8 -4 -15 -15 -15 -25 0 -10 -4 -19 -10 -19 -5 0 -10 12 -10 26 0 23
-2 25 -15 14 -28 -23 -28 -1 0 35 26 35 28 36 46 19 10 -9 19 -23 19 -31z
m-1272 -52 c-14 -5 -58 48 -58 69 1 9 15 -2 35 -25 20 -23 30 -42 23 -44z
m-68 39 c0 -5 -4 -10 -10 -10 -5 0 -10 -5 -10 -10 0 -6 11 -8 25 -4 18 4 27 1
31 -11 9 -22 -9 -50 -29 -49 -9 1 -13 -4 -10 -13 4 -11 -1 -12 -23 -7 -26 7
-28 6 -15 -10 27 -32 0 -29 -35 5 l-35 34 21 17 c23 19 50 14 50 -8 0 -16 5
-16 38 -8 30 8 28 24 -3 24 -30 0 -43 24 -25 45 14 17 30 20 30 5z m1386 -14
c3 -8 0 -24 -6 -37 -11 -20 -10 -21 6 -14 41 16 54 17 54 4 -1 -20 -48 -71
-62 -67 -7 3 -2 14 13 28 21 20 21 22 4 15 -60 -23 -65 -19 -39 30 l15 30 -25
-24 c-36 -34 -46 -17 -11 19 32 33 43 37 51 16z m-1505 -99 c-15 -18 -2 -30
17 -15 11 10 14 8 12 -7 -4 -34 0 -39 13 -20 8 11 16 14 20 8 4 -6 -2 -18 -13
-28 -18 -17 -20 -16 -49 6 -33 26 -37 39 -19 57 16 16 33 15 19 -1z m1594 -44
c-21 -38 -40 -45 -40 -16 0 10 -11 20 -25 24 -24 6 -22 7 20 26 57 26 72 15
45 -34z m56 -5 c23 -28 24 -42 3 -34 -9 3 -27 -3 -41 -14 -14 -11 -30 -17 -35
-14 -6 4 3 17 20 31 19 14 29 30 25 38 -8 22 6 18 28 -7z m-1641 -65 c0 -16
-13 -16 -62 -2 -46 12 -52 34 -8 26 29 -6 41 5 20 18 -5 3 -10 14 -10 23 1 20
60 -44 60 -65z m1680 8 c0 -9 -61 -51 -74 -51 -16 0 -3 20 27 39 35 23 47 26
47 12z m-1744 -32 c19 -11 32 -25 28 -30 -6 -10 -84 29 -84 43 0 14 21 9 56
-13z m1772 -11 c19 -19 14 -55 -10 -72 -12 -9 -26 -16 -30 -16 -11 0 -48 38
-48 50 0 17 39 50 58 50 10 0 23 -5 30 -12z m-1800 -18 c39 -24 37 -46 -4 -42
l-29 2 25 -19 c37 -29 17 -36 -29 -11 -44 25 -45 50 -2 50 22 1 24 2 9 11 -18
10 -25 29 -10 29 4 0 22 -9 40 -20z m1842 -69 c0 -10 -7 -24 -15 -31 -21 -17
-12 -24 14 -10 16 8 21 8 21 -2 0 -16 -78 -50 -86 -37 -3 5 5 23 17 40 22 31
22 31 1 20 -24 -13 -42 -14 -42 -3 0 6 64 39 83 41 4 1 7 -7 7 -18z m-1882
-21 c36 -22 38 -28 19 -55 -11 -14 -21 -16 -50 -11 -34 6 -55 21 -45 32 3 2
19 -1 37 -7 23 -8 36 -8 43 -1 8 8 0 16 -26 28 -36 18 -47 34 -23 34 6 0 27
-9 45 -20z m242 -45 c0 -8 -4 -15 -10 -15 -5 0 -7 7 -4 15 4 8 8 15 10 15 2 0
4 -7 4 -15z m1696 -102 c-3 -7 -14 -13 -24 -13 -10 0 -23 -5 -29 -11 -6 -6
-17 -9 -23 -7 -9 3 -8 8 4 20 22 22 20 27 -5 21 -40 -11 -15 20 27 32 35 10
40 9 47 -9 4 -11 5 -26 3 -33z m-2022 7 c-6 -27 -4 -30 20 -30 17 0 26 5 26
16 0 14 -3 14 -15 4 -13 -10 -15 -9 -15 9 0 17 5 22 23 19 17 -2 22 -10 22
-32 0 -38 -25 -54 -59 -38 -19 8 -26 19 -26 40 0 29 7 42 21 42 5 0 6 -13 3
-30z m1453 -22 c31 -15 47 -69 40 -142 -5 -52 -10 -65 -36 -88 -26 -23 -41
-28 -85 -28 -40 0 -55 4 -60 16 -10 25 -7 200 3 228 14 35 80 42 138 14z m591
-45 c2 -13 -1 -23 -7 -23 -6 0 -11 7 -11 15 0 8 -5 15 -11 15 -6 0 -9 -7 -6
-15 4 -8 2 -17 -3 -20 -6 -4 -10 1 -10 9 0 9 -6 16 -14 16 -9 0 -12 -7 -9 -20
3 -11 0 -20 -6 -20 -10 0 -12 5 -15 42 -1 13 38 27 69 25 12 -1 21 -10 23 -24z
m-2012 -3 c25 0 15 -30 -13 -42 -27 -11 -27 -12 -5 -15 24 -5 31 -23 8 -23 -7
0 -28 3 -45 6 -38 8 -39 35 -1 45 l25 7 -22 7 c-35 11 -28 28 8 21 17 -3 38
-6 45 -6z m2027 -62 c5 -37 0 -49 -12 -29 -6 10 -19 12 -46 7 -28 -6 -36 -4
-33 6 3 7 19 14 36 16 20 2 32 9 32 18 0 28 18 13 23 -18z m-1957 -151 c0
-122 5 -167 22 -229 100 -366 399 -632 761 -679 47 -6 102 -15 121 -19 79 -18
-100 -10 -192 9 -225 45 -419 166 -554 344 -57 75 -136 237 -159 327 -22 88
-31 270 -16 343 7 31 13 57 14 57 1 0 2 -69 3 -153z m-82 107 c19 -18 19 -20
6 -45 -13 -24 -90 -28 -90 -4 0 10 10 14 36 12 53 -3 56 21 5 29 -23 4 -41 10
-41 15 0 15 68 10 84 -7z m2044 -36 c-3 -28 -7 -33 -30 -33 -14 0 -30 -3 -34
-7 -12 -13 -24 -9 -24 7 0 8 7 15 15 15 8 0 15 5 15 10 0 6 -7 10 -15 10 -26
0 -16 19 13 23 63 9 63 9 60 -25z m-2063 -48 c21 17 31 5 14 -16 -11 -13 -11
-18 -1 -21 28 -10 9 -23 -32 -23 -49 0 -66 13 -39 29 10 6 12 11 6 11 -7 0
-13 7 -13 15 0 12 4 13 25 3 19 -8 28 -8 40 2z m2070 -20 c-3 -5 -26 -10 -51
-10 -24 0 -44 5 -44 10 0 6 23 10 51 10 31 0 48 -4 44 -10z m-26 -30 c25 0 28
-3 23 -25 -2 -14 -9 -25 -14 -25 -6 0 -8 7 -4 15 3 8 1 15 -4 15 -6 0 -10 -7
-10 -15 0 -8 -4 -15 -10 -15 -5 0 -10 7 -10 15 0 8 -4 15 -10 15 -5 0 -10 -7
-10 -15 0 -8 -4 -15 -10 -15 -11 0 -14 43 -3 54 4 3 13 4 21 1 7 -3 26 -5 41
-5z m-2073 -111 c12 -10 18 -9 31 4 9 9 13 20 9 24 -5 5 -11 2 -13 -4 -7 -20
-23 -15 -23 7 0 27 46 28 55 1 12 -40 -22 -70 -65 -56 -22 7 -36 47 -23 67 6
9 9 7 11 -9 2 -12 10 -27 18 -34z m2094 36 c0 -9 -9 -15 -25 -15 -32 0 -32
-14 1 -28 14 -7 22 -16 19 -22 -8 -12 -96 31 -92 44 2 6 21 16 43 23 52 15 54
15 54 -2z m-50 -77 c22 -13 38 -27 37 -33 -4 -13 -85 -30 -94 -21 -4 4 -1 11
6 15 9 6 11 18 7 35 -8 32 -5 32 44 4z m-1974 0 c4 -6 -5 -21 -22 -35 l-29
-23 33 6 c20 4 32 3 32 -4 0 -14 -82 -31 -94 -21 -6 5 -1 18 13 33 l22 23 -25
-4 c-41 -8 -30 14 12 25 51 14 50 14 58 0z m1861 -20 c-3 -8 -6 -5 -6 6 -1 11
2 17 5 13 3 -3 4 -12 1 -19z m96 -59 c48 -13 49 -32 1 -23 -26 5 -39 3 -45 -7
-11 -19 -19 -7 -12 19 6 25 6 25 56 11z m-1933 -33 c0 -19 -8 -26 -41 -34 -38
-10 -41 -9 -50 15 -12 33 -3 42 16 17 13 -17 14 -17 15 -1 0 18 20 25 20 7 0
-5 5 -10 10 -10 6 0 10 9 10 21 0 11 5 17 10 14 6 -3 10 -17 10 -29z m20 -45
c0 -5 -9 -12 -19 -16 -27 -8 -16 -34 11 -27 16 4 20 1 16 -10 -4 -8 2 -20 13
-26 25 -16 24 -48 0 -62 -31 -16 -59 -12 -71 11 -14 25 -3 41 11 16 12 -21 32
-22 49 -1 11 12 11 18 -2 31 -13 13 -22 13 -47 5 -31 -11 -57 3 -27 14 24 9
20 37 -3 29 -37 -11 -31 13 7 28 43 19 62 21 62 8z m1881 -13 c22 -6 39 -17
39 -25 0 -16 1 -16 -40 -2 -49 18 -58 -7 -18 -48 17 -18 28 -36 24 -40 -3 -4
-28 -6 -54 -5 l-47 3 36 -23 c32 -20 35 -26 26 -45 -10 -22 -47 -33 -47 -14 0
5 -8 8 -17 7 -32 -2 -28 47 7 84 17 18 29 39 26 46 -5 12 14 74 23 74 2 0 21
-5 42 -12z m-673 -226 c2 -60 0 -72 -13 -72 -11 0 -15 12 -17 48 -3 97 -1 105
15 100 8 -3 13 -30 15 -76z m-1123 47 c4 -11 5 -22 3 -23 -32 -22 -59 -36 -68
-36 -19 0 -10 16 20 33 18 11 27 23 23 32 -3 8 0 15 5 15 6 0 14 -9 17 -21z
m1339 5 c4 -10 2 -13 -6 -8 -7 5 -9 0 -6 -14 4 -12 2 -22 -3 -22 -5 0 -9 14
-9 30 0 32 14 40 24 14z m357 -34 c27 -15 26 -66 -2 -80 -43 -24 -92 43 -57
78 15 15 33 15 59 2z m-1672 -12 c-3 -28 2 -38 21 -38 33 0 23 -16 -19 -28
-21 -7 -43 -12 -50 -12 -18 0 -13 28 11 60 23 31 40 39 37 18z m1160 -54 c10
-22 9 -25 -6 -22 -10 2 -19 13 -21 26 -5 30 12 28 27 -4z m68 -6 c-3 -8 -6 -5
-6 6 -1 11 2 17 5 13 3 -3 4 -12 1 -19z m388 -13 c25 -20 28 -28 19 -42 -14
-23 -54 -30 -54 -10 0 8 -9 17 -21 20 -16 4 -19 2 -14 -11 37 -88 33 -95 -33
-62 -44 22 -46 24 -22 30 14 3 27 15 29 25 6 33 21 45 50 39 21 -5 24 -4 14 7
-14 15 -17 29 -5 29 4 -1 21 -12 37 -25z m-1564 -28 c-11 -27 -10 -27 14 -11
33 21 32 7 -2 -28 -44 -46 -70 -30 -42 25 12 22 12 22 -10 3 -11 -11 -24 -16
-29 -12 -4 4 8 21 27 38 38 34 58 27 42 -15z m87 -49 c17 -17 15 -38 -5 -60
-22 -24 -60 -23 -73 3 -24 43 43 92 78 57z m1351 -42 c13 -14 29 -22 37 -19
22 8 16 -14 -8 -31 -30 -21 -41 -20 -34 2 4 12 -1 26 -14 37 -21 19 -26 35
-12 35 5 0 19 -11 31 -24z m-1327 -42 c-28 -35 -42 -43 -42 -22 0 17 51 68 62
62 4 -3 -4 -21 -20 -40z m1293 6 c20 -23 14 -64 -11 -74 -44 -17 -84 35 -58
73 19 26 46 27 69 1z m-1244 -36 c-16 -20 -18 -30 -10 -40 18 -22 -11 -17 -38
5 -28 23 -30 34 -5 27 13 -4 23 3 36 25 12 21 21 28 28 21 7 -7 4 -19 -11 -38z
m49 0 c8 -19 15 -24 30 -19 31 10 24 -7 -15 -38 -44 -35 -59 -28 -50 27 11 64
20 71 35 30z m1119 -30 c21 -35 21 -37 4 -50 -27 -20 -42 -17 -53 10 -5 13
-16 29 -26 34 -12 7 -13 11 -4 17 6 4 17 2 23 -4 17 -17 29 -13 22 9 -10 33
11 23 34 -16z m-1038 -37 c0 -30 1 -31 11 -9 11 23 28 30 28 12 0 -6 -7 -24
-15 -40 -21 -41 -45 -39 -46 3 0 30 -1 31 -11 10 -12 -25 -28 -31 -28 -10 0
21 40 78 50 72 6 -3 10 -21 11 -38z m985 -44 c-3 -3 -12 0 -21 7 -13 10 -15 9
-15 -8 0 -12 -4 -24 -10 -27 -6 -4 -10 7 -10 27 0 18 -4 40 -9 48 -20 31 2 28
35 -6 20 -19 33 -38 30 -41z m-635 -53 c1 -11 2 -30 2 -42 1 -13 8 -28 17 -35
12 -10 9 -12 -22 -13 -21 0 -38 5 -38 10 0 6 5 10 10 10 6 0 10 14 10 31 0 17
-4 28 -10 24 -14 -9 -13 8 2 23 18 18 28 15 29 -8z m97 8 c15 -15 16 -53 2
-79 -11 -20 -60 -27 -60 -9 0 6 9 10 20 10 11 0 20 5 20 10 0 6 -9 10 -19 10
-24 0 -34 25 -21 51 12 21 40 25 58 7z m76 6 c19 -7 22 -74 4 -92 -15 -15 -58
-16 -58 -2 0 6 9 10 19 10 29 0 35 18 9 22 -38 5 -34 67 4 68 3 0 13 -3 22 -6z
m90 -10 c30 -30 11 -94 -29 -94 -14 0 -25 5 -25 10 0 6 9 10 20 10 27 0 25 18
-2 22 -26 3 -35 32 -18 53 16 19 35 19 54 -1z m-394 -24 c0 -5 -7 -10 -15 -10
-8 0 -15 5 -15 10 0 6 7 10 15 10 8 0 15 -4 15 -10z m520 0 c0 -5 -7 -10 -15
-10 -8 0 -15 5 -15 10 0 6 7 10 15 10 8 0 15 -4 15 -10z"/>
<path d="M1656 1994 c-7 -19 1 -34 19 -34 12 0 25 21 25 41 0 16 -38 10 -44
-7z"/>
<path d="M1048 1973 c6 -2 18 -2 25 0 6 3 1 5 -13 5 -14 0 -19 -2 -12 -5z"/>
<path d="M770 1750 c-13 -8 -11 -11 8 -16 19 -6 22 -13 23 -63 1 -31 1 -64 0
-73 -1 -10 4 -18 13 -18 13 0 16 12 16 53 l1 52 48 -52 c26 -29 51 -50 54 -46
4 3 7 36 7 73 0 38 5 71 12 78 9 9 3 12 -28 12 -30 -1 -35 -3 -22 -10 11 -7
17 -23 16 -50 0 -36 -11 -54 -20 -31 -1 5 -20 30 -42 55 -38 46 -58 54 -86 36z"/>
<path d="M985 1730 c-12 -14 -20 -36 -20 -60 0 -71 70 -114 121 -75 17 13 16
14 -14 5 -27 -7 -37 -5 -53 11 -22 22 -25 76 -6 103 18 24 64 24 83 0 14 -18
14 -18 12 6 -3 23 -8 25 -54 28 -41 2 -54 -1 -69 -18z"/>
<path d="M1140 1735 c8 -10 11 -38 8 -83 -3 -59 -1 -68 12 -65 12 3 15 13 12
34 -5 37 9 37 40 0 23 -27 68 -51 68 -36 0 4 -18 25 -40 46 -22 22 -40 42 -40
46 0 5 16 19 35 33 39 29 44 40 15 40 -11 0 -20 -4 -20 -8 0 -14 -36 -52 -49
-52 -12 0 -11 27 2 48 6 9 -1 12 -24 12 -27 0 -30 -2 -19 -15z"/>
<path d="M1320 1679 c4 -55 10 -74 25 -86 21 -15 71 -11 89 7 13 13 24 150 11
150 -6 0 -9 -18 -7 -45 5 -63 -4 -94 -33 -107 -42 -19 -57 4 -53 84 3 63 1 68
-17 68 -19 0 -20 -5 -15 -71z"/>
<path d="M810 1455 c0 -17 18 -30 62 -44 30 -10 38 -18 43 -44 3 -18 5 -144 3
-280 -3 -233 -4 -250 -22 -263 -11 -8 -32 -14 -47 -14 -32 0 -47 -16 -30 -33
13 -13 341 -20 341 -8 0 15 -37 41 -56 41 -11 0 -29 6 -40 14 -18 14 -19 28
-18 275 2 293 4 304 69 317 34 6 42 18 27 40 -11 17 -332 16 -332 -1z"/>
<path d="M400 1410 c0 -5 5 -10 11 -10 5 0 7 5 4 10 -3 6 -8 10 -11 10 -2 0
-4 -4 -4 -10z"/>
<path d="M281 1294 c0 -11 3 -14 6 -6 3 7 2 16 -1 19 -3 4 -6 -2 -5 -13z"/>
<path d="M638 643 c6 -2 18 -2 25 0 6 3 1 5 -13 5 -14 0 -19 -2 -12 -5z"/>
<path d="M758 639 c-29 -17 -21 -46 22 -80 40 -32 49 -52 29 -64 -17 -11 -57
4 -62 23 -4 13 -5 12 -6 -5 -2 -42 91 -44 104 -3 8 26 1 36 -46 66 -26 16 -39
31 -37 42 5 25 34 26 57 1 20 -22 29 -17 13 8 -11 17 -54 24 -74 12z"/>
<path d="M885 563 c0 -67 3 -83 15 -83 12 0 15 16 15 83 0 67 -3 83 -15 83
-12 0 -15 -16 -15 -83z"/>
<path d="M955 563 l0 -83 56 0 c43 0 58 4 63 16 10 26 7 28 -13 10 -11 -10
-30 -16 -43 -14 -18 2 -24 10 -26 37 -3 34 -3 34 32 28 38 -6 42 -2 26 23 -7
11 -10 12 -10 2 0 -8 -9 -12 -22 -10 -32 4 -33 62 -2 66 12 2 29 -5 39 -14 16
-17 17 -17 13 2 -3 16 -12 19 -58 20 l-55 0 0 -83z"/>
<path d="M586 618 c-38 -55 0 -139 61 -137 l28 1 -32 9 c-48 14 -66 92 -30
137 6 8 6 12 -1 12 -6 0 -18 -10 -26 -22z"/>
<path d="M692 620 c14 -22 24 -19 15 5 -4 8 -11 15 -17 15 -6 0 -6 -7 2 -20z"/>
<path d="M1184 563 c-3 -10 -10 -26 -15 -35 -17 -32 -11 -48 19 -48 15 1 36 0
46 -2 10 -2 21 3 23 10 3 6 -1 12 -7 12 -16 0 -44 30 -35 38 4 4 10 1 12 -5 5
-15 23 -17 23 -3 0 15 -33 50 -48 50 -7 0 -15 -8 -18 -17z m16 -58 c0 -8 -4
-15 -10 -15 -5 0 -10 7 -10 15 0 8 5 15 10 15 6 0 10 -7 10 -15z"/>
<path d="M1258 323 c7 -3 16 -2 19 1 4 3 -2 6 -13 5 -11 0 -14 -3 -6 -6z"/>
<path d="M1750 1950 c0 -5 5 -10 10 -10 6 0 10 5 10 10 0 6 -4 10 -10 10 -5 0
-10 -4 -10 -10z"/>
<path d="M375 1850 c3 -5 8 -10 11 -10 2 0 4 5 4 10 0 6 -5 10 -11 10 -5 0 -7
-4 -4 -10z"/>
<path d="M1895 1790 c-3 -5 -1 -10 4 -10 6 0 11 5 11 10 0 6 -2 10 -4 10 -3 0
-8 -4 -11 -10z"/>
<path d="M1990 1629 c0 -15 5 -20 22 -17 34 5 37 38 4 38 -20 0 -26 -5 -26
-21z"/>
<path d="M2110 1430 c0 -5 5 -10 10 -10 6 0 10 5 10 10 0 6 -4 10 -10 10 -5 0
-10 -4 -10 -10z"/>
<path d="M2155 1200 c3 -5 8 -10 11 -10 2 0 4 5 4 10 0 6 -5 10 -11 10 -5 0
-7 -4 -4 -10z"/>
<path d="M2048 693 c7 -3 16 -2 19 1 4 3 -2 6 -13 5 -11 0 -14 -3 -6 -6z"/>
<path d="M1990 630 c0 -5 5 -10 10 -10 6 0 10 5 10 10 0 6 -4 10 -10 10 -5 0
-10 -4 -10 -10z"/>
<path d="M2025 610 c3 -5 8 -10 11 -10 2 0 4 5 4 10 0 6 -5 10 -11 10 -5 0 -7
-4 -4 -10z"/>
<path d="M1944 555 c-8 -20 4 -35 27 -35 23 0 26 35 3 44 -22 8 -24 8 -30 -9z"/>
<path d="M285 520 c-3 -6 1 -7 9 -4 18 7 21 14 7 14 -6 0 -13 -4 -16 -10z"/>
<path d="M1920 459 c0 -5 5 -7 10 -4 6 3 10 8 10 11 0 2 -4 4 -10 4 -5 0 -10
-5 -10 -11z"/>
<path d="M400 390 c-9 -16 -8 -22 5 -27 20 -7 50 20 41 36 -11 17 -34 13 -46
-9z"/>
<path d="M1723 324 c-8 -21 23 -52 38 -37 8 8 8 17 0 32 -14 25 -29 27 -38 5z"/>
<path d="M1670 239 c0 -5 5 -7 10 -4 6 3 10 8 10 11 0 2 -4 4 -10 4 -5 0 -10
-5 -10 -11z"/>
<path d="M1070 125 c0 -8 5 -15 10 -15 6 0 10 7 10 15 0 8 -4 15 -10 15 -5 0
-10 -7 -10 -15z"/>
<path d="M1156 133 c-11 -11 -6 -23 9 -23 8 0 15 4 15 9 0 13 -16 22 -24 14z"/>
<path d="M1240 125 c0 -8 5 -15 10 -15 6 0 10 7 10 15 0 8 -4 15 -10 15 -5 0
-10 -7 -10 -15z"/>
</g>
</svg>
